<svg xmlns="http://www.w3.org/2000/svg" xmlns:xlink="http://www.w3.org/1999/xlink" width="500" zoomAndPan="magnify" viewBox="0 0 375 374.999991" height="500" preserveAspectRatio="xMidYMid meet" version="1.0"><defs><g/><clipPath id="7c3f2dac5a"><path d="M 149.105469 103.222656 L 225.605469 103.222656 L 225.605469 167 L 149.105469 167 Z M 149.105469 103.222656 " clip-rule="nonzero"/></clipPath><clipPath id="c2e01cf6b5"><path d="M 165 162 L 181 162 L 181 176.722656 L 165 176.722656 Z M 165 162 " clip-rule="nonzero"/></clipPath><clipPath id="312376d2b8"><path d="M 200 162 L 215 162 L 215 176.722656 L 200 176.722656 Z M 200 162 " clip-rule="nonzero"/></clipPath></defs><g fill="#ffffff" fill-opacity="1"><g transform="translate(67.62171, 234.07749)"><g><path d="M 8.9375 0.25 C 7.5 0.25 6.144531 0.0625 4.875 -0.3125 C 3.601562 -0.695312 2.566406 -1.21875 1.765625 -1.875 C 1.335938 -2.1875 1.125 -2.632812 1.125 -3.21875 C 1.125 -3.601562 1.238281 -3.941406 1.46875 -4.234375 C 1.695312 -4.523438 1.972656 -4.671875 2.296875 -4.671875 C 2.628906 -4.671875 3.007812 -4.539062 3.4375 -4.28125 C 4.238281 -3.695312 5.078125 -3.273438 5.953125 -3.015625 C 6.828125 -2.753906 7.796875 -2.625 8.859375 -2.625 C 10.210938 -2.625 11.253906 -2.859375 11.984375 -3.328125 C 12.710938 -3.804688 13.078125 -4.503906 13.078125 -5.421875 C 13.078125 -6.128906 12.734375 -6.671875 12.046875 -7.046875 C 11.367188 -7.429688 10.238281 -7.800781 8.65625 -8.15625 C 7.019531 -8.507812 5.6875 -8.914062 4.65625 -9.375 C 3.632812 -9.84375 2.863281 -10.441406 2.34375 -11.171875 C 1.820312 -11.898438 1.5625 -12.820312 1.5625 -13.9375 C 1.5625 -15.09375 1.882812 -16.125 2.53125 -17.03125 C 3.1875 -17.945312 4.097656 -18.660156 5.265625 -19.171875 C 6.429688 -19.691406 7.738281 -19.953125 9.1875 -19.953125 C 11.851562 -19.953125 14.023438 -19.242188 15.703125 -17.828125 C 15.941406 -17.617188 16.113281 -17.414062 16.21875 -17.21875 C 16.320312 -17.03125 16.375 -16.785156 16.375 -16.484375 C 16.375 -16.085938 16.253906 -15.742188 16.015625 -15.453125 C 15.785156 -15.171875 15.515625 -15.03125 15.203125 -15.03125 C 15.015625 -15.03125 14.835938 -15.054688 14.671875 -15.109375 C 14.515625 -15.171875 14.304688 -15.273438 14.046875 -15.421875 C 13.285156 -15.984375 12.546875 -16.394531 11.828125 -16.65625 C 11.109375 -16.925781 10.226562 -17.0625 9.1875 -17.0625 C 7.925781 -17.0625 6.925781 -16.804688 6.1875 -16.296875 C 5.445312 -15.785156 5.078125 -15.078125 5.078125 -14.171875 C 5.078125 -13.398438 5.40625 -12.8125 6.0625 -12.40625 C 6.71875 -12 7.828125 -11.617188 9.390625 -11.265625 C 11.046875 -10.890625 12.390625 -10.472656 13.421875 -10.015625 C 14.453125 -9.554688 15.242188 -8.972656 15.796875 -8.265625 C 16.347656 -7.554688 16.625 -6.671875 16.625 -5.609375 C 16.625 -4.460938 16.300781 -3.445312 15.65625 -2.5625 C 15.007812 -1.675781 14.101562 -0.984375 12.9375 -0.484375 C 11.78125 0.00390625 10.445312 0.25 8.9375 0.25 Z M 8.9375 0.25 "/></g></g></g><g fill="#ffffff" fill-opacity="1"><g transform="translate(91.036329, 234.07749)"><g><path d="M 17.515625 -19.828125 C 18.054688 -19.828125 18.484375 -19.664062 18.796875 -19.34375 C 19.117188 -19.019531 19.28125 -18.585938 19.28125 -18.046875 L 19.28125 -1.640625 C 19.28125 -1.109375 19.113281 -0.671875 18.78125 -0.328125 C 18.457031 0.00390625 18.035156 0.171875 17.515625 0.171875 C 16.972656 0.171875 16.539062 0.00390625 16.21875 -0.328125 C 15.90625 -0.671875 15.75 -1.109375 15.75 -1.640625 L 15.75 -8.546875 L 5.671875 -8.546875 L 5.671875 -1.640625 C 5.671875 -1.109375 5.503906 -0.671875 5.171875 -0.328125 C 4.847656 0.00390625 4.421875 0.171875 3.890625 0.171875 C 3.359375 0.171875 2.929688 0.00390625 2.609375 -0.328125 C 2.285156 -0.671875 2.125 -1.109375 2.125 -1.640625 L 2.125 -18.046875 C 2.125 -18.585938 2.28125 -19.019531 2.59375 -19.34375 C 2.914062 -19.664062 3.347656 -19.828125 3.890625 -19.828125 C 4.421875 -19.828125 4.847656 -19.664062 5.171875 -19.34375 C 5.503906 -19.019531 5.671875 -18.585938 5.671875 -18.046875 L 5.671875 -11.453125 L 15.75 -11.453125 L 15.75 -18.046875 C 15.75 -18.585938 15.90625 -19.019531 16.21875 -19.34375 C 16.539062 -19.664062 16.972656 -19.828125 17.515625 -19.828125 Z M 17.515625 -19.828125 "/></g></g></g><g fill="#ffffff" fill-opacity="1"><g transform="translate(118.026952, 234.07749)"><g><path d="M 10.890625 0.25 C 8.972656 0.25 7.3125 -0.15625 5.90625 -0.96875 C 4.5 -1.789062 3.414062 -2.960938 2.65625 -4.484375 C 1.894531 -6.015625 1.515625 -7.804688 1.515625 -9.859375 C 1.515625 -11.910156 1.890625 -13.691406 2.640625 -15.203125 C 3.390625 -16.722656 4.472656 -17.894531 5.890625 -18.71875 C 7.304688 -19.539062 8.972656 -19.953125 10.890625 -19.953125 C 12.804688 -19.953125 14.46875 -19.539062 15.875 -18.71875 C 17.28125 -17.894531 18.359375 -16.722656 19.109375 -15.203125 C 19.867188 -13.691406 20.25 -11.910156 20.25 -9.859375 C 20.25 -7.804688 19.867188 -6.015625 19.109375 -4.484375 C 18.347656 -2.960938 17.265625 -1.789062 15.859375 -0.96875 C 14.453125 -0.15625 12.796875 0.25 10.890625 0.25 Z M 10.890625 -2.625 C 12.703125 -2.625 14.113281 -3.25 15.125 -4.5 C 16.144531 -5.75 16.65625 -7.535156 16.65625 -9.859375 C 16.65625 -12.191406 16.144531 -13.972656 15.125 -15.203125 C 14.113281 -16.441406 12.703125 -17.0625 10.890625 -17.0625 C 9.066406 -17.0625 7.644531 -16.441406 6.625 -15.203125 C 5.613281 -13.972656 5.109375 -12.191406 5.109375 -9.859375 C 5.109375 -7.535156 5.613281 -5.75 6.625 -4.5 C 7.644531 -3.25 9.066406 -2.625 10.890625 -2.625 Z M 10.890625 -2.625 "/></g></g></g><g fill="#ffffff" fill-opacity="1"><g transform="translate(145.38075, 234.07749)"><g><path d="M 3.90625 0.171875 C 3.363281 0.171875 2.929688 0.0078125 2.609375 -0.3125 C 2.285156 -0.644531 2.125 -1.085938 2.125 -1.640625 L 2.125 -17.984375 C 2.125 -18.523438 2.273438 -18.945312 2.578125 -19.25 C 2.890625 -19.550781 3.316406 -19.703125 3.859375 -19.703125 L 10.734375 -19.703125 C 12.835938 -19.703125 14.472656 -19.171875 15.640625 -18.109375 C 16.816406 -17.054688 17.40625 -15.582031 17.40625 -13.6875 C 17.40625 -11.789062 16.816406 -10.3125 15.640625 -9.25 C 14.472656 -8.1875 12.835938 -7.65625 10.734375 -7.65625 L 5.734375 -7.65625 L 5.734375 -1.640625 C 5.734375 -1.085938 5.566406 -0.644531 5.234375 -0.3125 C 4.910156 0.0078125 4.46875 0.171875 3.90625 0.171875 Z M 10.28125 -10.421875 C 12.757812 -10.421875 14 -11.5 14 -13.65625 C 14 -15.820312 12.757812 -16.90625 10.28125 -16.90625 L 5.734375 -16.90625 L 5.734375 -10.421875 Z M 10.28125 -10.421875 "/></g></g></g><g fill="#ffffff" fill-opacity="1"><g transform="translate(169.409988, 234.07749)"><g><path d="M 8.9375 0.25 C 7.5 0.25 6.144531 0.0625 4.875 -0.3125 C 3.601562 -0.695312 2.566406 -1.21875 1.765625 -1.875 C 1.335938 -2.1875 1.125 -2.632812 1.125 -3.21875 C 1.125 -3.601562 1.238281 -3.941406 1.46875 -4.234375 C 1.695312 -4.523438 1.972656 -4.671875 2.296875 -4.671875 C 2.628906 -4.671875 3.007812 -4.539062 3.4375 -4.28125 C 4.238281 -3.695312 5.078125 -3.273438 5.953125 -3.015625 C 6.828125 -2.753906 7.796875 -2.625 8.859375 -2.625 C 10.210938 -2.625 11.253906 -2.859375 11.984375 -3.328125 C 12.710938 -3.804688 13.078125 -4.503906 13.078125 -5.421875 C 13.078125 -6.128906 12.734375 -6.671875 12.046875 -7.046875 C 11.367188 -7.429688 10.238281 -7.800781 8.65625 -8.15625 C 7.019531 -8.507812 5.6875 -8.914062 4.65625 -9.375 C 3.632812 -9.84375 2.863281 -10.441406 2.34375 -11.171875 C 1.820312 -11.898438 1.5625 -12.820312 1.5625 -13.9375 C 1.5625 -15.09375 1.882812 -16.125 2.53125 -17.03125 C 3.1875 -17.945312 4.097656 -18.660156 5.265625 -19.171875 C 6.429688 -19.691406 7.738281 -19.953125 9.1875 -19.953125 C 11.851562 -19.953125 14.023438 -19.242188 15.703125 -17.828125 C 15.941406 -17.617188 16.113281 -17.414062 16.21875 -17.21875 C 16.320312 -17.03125 16.375 -16.785156 16.375 -16.484375 C 16.375 -16.085938 16.253906 -15.742188 16.015625 -15.453125 C 15.785156 -15.171875 15.515625 -15.03125 15.203125 -15.03125 C 15.015625 -15.03125 14.835938 -15.054688 14.671875 -15.109375 C 14.515625 -15.171875 14.304688 -15.273438 14.046875 -15.421875 C 13.285156 -15.984375 12.546875 -16.394531 11.828125 -16.65625 C 11.109375 -16.925781 10.226562 -17.0625 9.1875 -17.0625 C 7.925781 -17.0625 6.925781 -16.804688 6.1875 -16.296875 C 5.445312 -15.785156 5.078125 -15.078125 5.078125 -14.171875 C 5.078125 -13.398438 5.40625 -12.8125 6.0625 -12.40625 C 6.71875 -12 7.828125 -11.617188 9.390625 -11.265625 C 11.046875 -10.890625 12.390625 -10.472656 13.421875 -10.015625 C 14.453125 -9.554688 15.242188 -8.972656 15.796875 -8.265625 C 16.347656 -7.554688 16.625 -6.671875 16.625 -5.609375 C 16.625 -4.460938 16.300781 -3.445312 15.65625 -2.5625 C 15.007812 -1.675781 14.101562 -0.984375 12.9375 -0.484375 C 11.78125 0.00390625 10.445312 0.25 8.9375 0.25 Z M 8.9375 0.25 "/></g></g></g><g fill="#ffffff" fill-opacity="1"><g transform="translate(192.82461, 234.07749)"><g><path d="M 3.90625 0.171875 C 3.363281 0.171875 2.929688 0.0078125 2.609375 -0.3125 C 2.285156 -0.644531 2.125 -1.085938 2.125 -1.640625 L 2.125 -17.984375 C 2.125 -18.523438 2.273438 -18.945312 2.578125 -19.25 C 2.890625 -19.550781 3.316406 -19.703125 3.859375 -19.703125 L 10.734375 -19.703125 C 12.835938 -19.703125 14.472656 -19.171875 15.640625 -18.109375 C 16.816406 -17.054688 17.40625 -15.582031 17.40625 -13.6875 C 17.40625 -11.789062 16.816406 -10.3125 15.640625 -9.25 C 14.472656 -8.1875 12.835938 -7.65625 10.734375 -7.65625 L 5.734375 -7.65625 L 5.734375 -1.640625 C 5.734375 -1.085938 5.566406 -0.644531 5.234375 -0.3125 C 4.910156 0.0078125 4.46875 0.171875 3.90625 0.171875 Z M 10.28125 -10.421875 C 12.757812 -10.421875 14 -11.5 14 -13.65625 C 14 -15.820312 12.757812 -16.90625 10.28125 -16.90625 L 5.734375 -16.90625 L 5.734375 -10.421875 Z M 10.28125 -10.421875 "/></g></g></g><g fill="#ffffff" fill-opacity="1"><g transform="translate(216.853848, 234.07749)"><g><path d="M 17.515625 -19.828125 C 18.054688 -19.828125 18.484375 -19.664062 18.796875 -19.34375 C 19.117188 -19.019531 19.28125 -18.585938 19.28125 -18.046875 L 19.28125 -1.640625 C 19.28125 -1.109375 19.113281 -0.671875 18.78125 -0.328125 C 18.457031 0.00390625 18.035156 0.171875 17.515625 0.171875 C 16.972656 0.171875 16.539062 0.00390625 16.21875 -0.328125 C 15.90625 -0.671875 15.75 -1.109375 15.75 -1.640625 L 15.75 -8.546875 L 5.671875 -8.546875 L 5.671875 -1.640625 C 5.671875 -1.109375 5.503906 -0.671875 5.171875 -0.328125 C 4.847656 0.00390625 4.421875 0.171875 3.890625 0.171875 C 3.359375 0.171875 2.929688 0.00390625 2.609375 -0.328125 C 2.285156 -0.671875 2.125 -1.109375 2.125 -1.640625 L 2.125 -18.046875 C 2.125 -18.585938 2.28125 -19.019531 2.59375 -19.34375 C 2.914062 -19.664062 3.347656 -19.828125 3.890625 -19.828125 C 4.421875 -19.828125 4.847656 -19.664062 5.171875 -19.34375 C 5.503906 -19.019531 5.671875 -18.585938 5.671875 -18.046875 L 5.671875 -11.453125 L 15.75 -11.453125 L 15.75 -18.046875 C 15.75 -18.585938 15.90625 -19.019531 16.21875 -19.34375 C 16.539062 -19.664062 16.972656 -19.828125 17.515625 -19.828125 Z M 17.515625 -19.828125 "/></g></g></g><g fill="#ffffff" fill-opacity="1"><g transform="translate(243.844473, 234.07749)"><g><path d="M 3.859375 0 C 3.316406 0 2.890625 -0.144531 2.578125 -0.4375 C 2.273438 -0.738281 2.125 -1.160156 2.125 -1.703125 L 2.125 -17.984375 C 2.125 -18.523438 2.273438 -18.945312 2.578125 -19.25 C 2.890625 -19.550781 3.316406 -19.703125 3.859375 -19.703125 L 13.9375 -19.703125 C 14.476562 -19.703125 14.894531 -19.578125 15.1875 -19.328125 C 15.488281 -19.085938 15.640625 -18.742188 15.640625 -18.296875 C 15.640625 -17.828125 15.488281 -17.46875 15.1875 -17.21875 C 14.894531 -16.96875 14.476562 -16.84375 13.9375 -16.84375 L 5.640625 -16.84375 L 5.640625 -11.421875 L 13.375 -11.421875 C 13.914062 -11.421875 14.335938 -11.300781 14.640625 -11.0625 C 14.941406 -10.820312 15.09375 -10.46875 15.09375 -10 C 15.09375 -9.550781 14.941406 -9.207031 14.640625 -8.96875 C 14.335938 -8.726562 13.914062 -8.609375 13.375 -8.609375 L 5.640625 -8.609375 L 5.640625 -2.84375 L 13.9375 -2.84375 C 14.476562 -2.84375 14.894531 -2.71875 15.1875 -2.46875 C 15.488281 -2.21875 15.640625 -1.859375 15.640625 -1.390625 C 15.640625 -0.941406 15.488281 -0.597656 15.1875 -0.359375 C 14.894531 -0.117188 14.476562 0 13.9375 0 Z M 3.859375 0 "/></g></g></g><g fill="#ffffff" fill-opacity="1"><g transform="translate(265.890152, 234.07749)"><g><path d="M 17.875 -2.265625 C 18.101562 -1.929688 18.21875 -1.601562 18.21875 -1.28125 C 18.21875 -0.851562 18.046875 -0.5 17.703125 -0.21875 C 17.359375 0.0625 16.953125 0.203125 16.484375 0.203125 C 16.179688 0.203125 15.894531 0.132812 15.625 0 C 15.351562 -0.144531 15.128906 -0.359375 14.953125 -0.640625 L 11.234375 -6.28125 C 10.859375 -6.882812 10.460938 -7.304688 10.046875 -7.546875 C 9.628906 -7.785156 9.082031 -7.90625 8.40625 -7.90625 L 5.671875 -7.90625 L 5.671875 -1.640625 C 5.671875 -1.085938 5.507812 -0.644531 5.1875 -0.3125 C 4.875 0.0078125 4.445312 0.171875 3.90625 0.171875 C 3.363281 0.171875 2.929688 0.0078125 2.609375 -0.3125 C 2.285156 -0.644531 2.125 -1.085938 2.125 -1.640625 L 2.125 -17.984375 C 2.125 -18.523438 2.273438 -18.945312 2.578125 -19.25 C 2.890625 -19.550781 3.316406 -19.703125 3.859375 -19.703125 L 10.84375 -19.703125 C 13.070312 -19.703125 14.769531 -19.203125 15.9375 -18.203125 C 17.101562 -17.203125 17.6875 -15.765625 17.6875 -13.890625 C 17.6875 -12.359375 17.253906 -11.101562 16.390625 -10.125 C 15.523438 -9.144531 14.300781 -8.515625 12.71875 -8.234375 C 13.25 -8.109375 13.71875 -7.878906 14.125 -7.546875 C 14.539062 -7.210938 14.945312 -6.742188 15.34375 -6.140625 Z M 10.34375 -10.671875 C 11.695312 -10.671875 12.691406 -10.925781 13.328125 -11.4375 C 13.960938 -11.945312 14.28125 -12.734375 14.28125 -13.796875 C 14.28125 -14.878906 13.960938 -15.664062 13.328125 -16.15625 C 12.691406 -16.65625 11.695312 -16.90625 10.34375 -16.90625 L 5.640625 -16.90625 L 5.640625 -10.671875 Z M 10.34375 -10.671875 "/></g></g></g><g fill="#ffffff" fill-opacity="1"><g transform="translate(290.897208, 234.07749)"><g><path d="M 3.859375 0 C 3.316406 0 2.890625 -0.144531 2.578125 -0.4375 C 2.273438 -0.738281 2.125 -1.160156 2.125 -1.703125 L 2.125 -17.984375 C 2.125 -18.523438 2.273438 -18.945312 2.578125 -19.25 C 2.890625 -19.550781 3.316406 -19.703125 3.859375 -19.703125 L 13.9375 -19.703125 C 14.476562 -19.703125 14.894531 -19.578125 15.1875 -19.328125 C 15.488281 -19.085938 15.640625 -18.742188 15.640625 -18.296875 C 15.640625 -17.828125 15.488281 -17.46875 15.1875 -17.21875 C 14.894531 -16.96875 14.476562 -16.84375 13.9375 -16.84375 L 5.640625 -16.84375 L 5.640625 -11.421875 L 13.375 -11.421875 C 13.914062 -11.421875 14.335938 -11.300781 14.640625 -11.0625 C 14.941406 -10.820312 15.09375 -10.46875 15.09375 -10 C 15.09375 -9.550781 14.941406 -9.207031 14.640625 -8.96875 C 14.335938 -8.726562 13.914062 -8.609375 13.375 -8.609375 L 5.640625 -8.609375 L 5.640625 -2.84375 L 13.9375 -2.84375 C 14.476562 -2.84375 14.894531 -2.71875 15.1875 -2.46875 C 15.488281 -2.21875 15.640625 -1.859375 15.640625 -1.390625 C 15.640625 -0.941406 15.488281 -0.597656 15.1875 -0.359375 C 14.894531 -0.117188 14.476562 0 13.9375 0 Z M 3.859375 0 "/></g></g></g><g clip-path="url(#7c3f2dac5a)"><path fill="#ffffff" d="M 160.171875 152.046875 L 166.148438 151.664062 C 166.15625 151.664062 166.15625 151.664062 166.167969 151.664062 L 211.46875 148.304688 C 214.460938 148.082031 217.019531 146.113281 217.992188 143.277344 L 225.457031 121.5625 C 225.96875 120.074219 225.722656 118.429688 224.816406 117.160156 C 223.898438 115.882812 222.421875 115.125 220.859375 115.125 L 163.746094 115.125 L 162.976562 109.355469 C 162.523438 105.917969 159.5625 103.332031 156.097656 103.332031 L 151.402344 103.332031 C 150.152344 103.332031 149.148438 104.34375 149.148438 105.585938 C 149.148438 106.835938 150.160156 107.839844 151.402344 107.839844 L 156.097656 107.839844 C 157.308594 107.839844 158.339844 108.746094 158.5 109.945312 L 163.449219 147.320312 L 159.886719 147.558594 C 156.550781 147.773438 153.941406 150.5625 153.941406 153.90625 C 153.941406 157.410156 156.796875 160.265625 160.300781 160.265625 L 212.117188 160.265625 C 214.734375 160.265625 217 161.949219 217.757812 164.460938 C 218.054688 165.433594 218.949219 166.066406 219.914062 166.066406 C 220.128906 166.066406 220.347656 166.035156 220.5625 165.964844 C 221.753906 165.613281 222.433594 164.351562 222.078125 163.160156 C 220.75 158.730469 216.742188 155.75 212.117188 155.75 L 160.300781 155.75 C 159.277344 155.75 158.449219 154.921875 158.449219 153.898438 C 158.449219 152.921875 159.207031 152.117188 160.171875 152.046875 Z M 220.859375 119.632812 C 220.976562 119.632812 221.074219 119.679688 221.144531 119.78125 C 221.210938 119.878906 221.230469 119.984375 221.191406 120.09375 L 213.730469 141.808594 C 213.347656 142.933594 212.324219 143.71875 211.140625 143.808594 L 167.96875 147.007812 L 164.34375 119.632812 Z M 220.859375 119.632812 " fill-opacity="1" fill-rule="nonzero"/></g><g clip-path="url(#c2e01cf6b5)"><path fill="#ffffff" d="M 173.222656 162.304688 C 169.21875 162.304688 165.960938 165.5625 165.960938 169.570312 C 165.960938 173.574219 169.21875 176.832031 173.222656 176.832031 C 177.230469 176.832031 180.488281 173.574219 180.488281 169.570312 C 180.488281 165.5625 177.230469 162.304688 173.222656 162.304688 Z M 173.222656 172.304688 C 171.707031 172.304688 170.476562 171.074219 170.476562 169.558594 C 170.476562 168.042969 171.707031 166.8125 173.222656 166.8125 C 174.742188 166.8125 175.972656 168.042969 175.972656 169.558594 C 175.972656 171.074219 174.742188 172.304688 173.222656 172.304688 Z M 173.222656 172.304688 " fill-opacity="1" fill-rule="nonzero"/></g><g clip-path="url(#312376d2b8)"><path fill="#ffffff" d="M 207.519531 162.304688 C 203.511719 162.304688 200.253906 165.5625 200.253906 169.570312 C 200.253906 173.574219 203.511719 176.832031 207.519531 176.832031 C 211.527344 176.832031 214.785156 173.574219 214.785156 169.570312 C 214.785156 165.5625 211.527344 162.304688 207.519531 162.304688 Z M 207.519531 172.304688 C 206.003906 172.304688 204.773438 171.074219 204.773438 169.558594 C 204.773438 168.042969 206.003906 166.8125 207.519531 166.8125 C 209.035156 166.8125 210.265625 168.042969 210.265625 169.558594 C 210.265625 171.074219 209.035156 172.304688 207.519531 172.304688 Z M 207.519531 172.304688 " fill-opacity="1" fill-rule="nonzero"/></g><path fill="#ffffff" d="M 178.863281 141.257812 C 180.113281 141.257812 181.117188 140.246094 181.117188 139.003906 L 181.117188 126.523438 C 181.117188 125.273438 180.105469 124.269531 178.863281 124.269531 C 177.625 124.269531 176.609375 125.28125 176.609375 126.523438 L 176.609375 138.996094 C 176.609375 140.246094 177.613281 141.257812 178.863281 141.257812 Z M 178.863281 141.257812 " fill-opacity="1" fill-rule="nonzero"/><path fill="#ffffff" d="M 191.1875 141.257812 C 192.4375 141.257812 193.445312 140.246094 193.445312 139.003906 L 193.445312 126.523438 C 193.445312 125.273438 192.429688 124.269531 191.1875 124.269531 C 189.949219 124.269531 188.933594 125.28125 188.933594 126.523438 L 188.933594 138.996094 C 188.933594 140.246094 189.949219 141.257812 191.1875 141.257812 Z M 191.1875 141.257812 " fill-opacity="1" fill-rule="nonzero"/><path fill="#ffffff" d="M 203.523438 141.257812 C 204.773438 141.257812 205.777344 140.246094 205.777344 139.003906 L 205.777344 126.523438 C 205.777344 125.273438 204.765625 124.269531 203.523438 124.269531 C 202.273438 124.269531 201.269531 125.28125 201.269531 126.523438 L 201.269531 138.996094 C 201.269531 140.246094 202.273438 141.257812 203.523438 141.257812 Z M 203.523438 141.257812 " fill-opacity="1" fill-rule="nonzero"/></svg>